<svg xmlns="http://www.w3.org/2000/svg" viewBox="0 0 220 220" role="img" aria-label="rookery">
  <title>rookery</title>
  <!-- bone tile, subtle border -->
  <rect x="1" y="1" width="218" height="218" rx="38" ry="38" fill="#ECEAE4" stroke="#D7D4CC" stroke-width="1"/>
  <!-- perch / roost shelf: a thin geometric rule the corvid rests on -->
  <rect x="51" y="157" width="118" height="3" rx="1.5" fill="#15171C" opacity="0.30"/>
  <!-- brand perched corvid (ink body, gold eye). master mark is 565x742,
       scaled ~0.205, centered horizontally, feet seated on the perch rule -->
  <g transform="translate(46.25 5.55) scale(0.205)">
    <g fill="#15171C">
      <path d="M564 309 L470 278 L418 278 L364 332 L462 433 L279 626 L376 725 L302 726 L288 741 L450 741 L437 726 L387 726 L351 647 L484 484 L484 330 Z"/>
      <path d="M446 433 L369 355 L126 594 L343 539 Z"/>
      <path d="M328 555 L169 595 L58 741 L158 741 Z"/>
    </g>
    <path fill="#F0B43C" d="M443.5 295.2 L476.5 295.2 L460.0 311.7 Z"/>
  </g>
</svg>
